<svg id="ac_unit_black_24dp_1_" data-name="ac_unit_black_24dp (1)" xmlns="http://www.w3.org/2000/svg" width="16" height="16" viewBox="0 0 16 16">
  <path id="Path_2612" data-name="Path 2612" d="M0,0H16V16H0Z" fill="none"/>
  <path id="Path_2613" data-name="Path 2613" d="M15.333,8h-2.78l2.16-2.16-.94-.947L10.667,8H9.333V6.667L12.44,3.56l-.947-.94L9.333,4.78V2H8V4.78L5.84,2.62l-.947.94L8,6.667V8H6.667L3.56,4.893l-.94.947L4.78,8H2V9.333H4.78l-2.16,2.16.94.947L6.667,9.333H8v1.333L4.893,13.773l.947.94L8,12.553v2.78H9.333v-2.78l2.16,2.16.947-.94L9.333,10.667V9.333h1.333l3.107,3.107.94-.947-2.16-2.16h2.78Z" transform="translate(-0.667 -0.667)" fill="#404040" stroke="#fff" stroke-width="0.5"/>
</svg>
