<svg id="balcony_black_24dp" xmlns="http://www.w3.org/2000/svg" width="16" height="16" viewBox="0 0 16 16">
  <rect id="Rectangle_9539" data-name="Rectangle 9539" width="16" height="16" fill="none"/>
  <path id="Path_2595" data-name="Path 2595" d="M7.667,7.333V8.667H6.333V7.333Zm4,1.333V7.333H10.333V8.667ZM15,10v5.333H3V10h.667V7.333a5.333,5.333,0,0,1,10.667,0V10ZM5.667,11.333H4.333V14H5.667Zm2.667,0H7V14H8.333Zm0-7.947A4.005,4.005,0,0,0,5,7.333V10H8.333ZM9.667,10H13V7.333A4.005,4.005,0,0,0,9.667,3.387ZM11,11.333H9.667V14H11Zm2.667,0H12.333V14h1.333Z" transform="translate(-1 -0.667)" fill="#404040" stroke="#fff" stroke-width="0.5"/>
</svg>
