<svg id="bed_black_24dp" xmlns="http://www.w3.org/2000/svg" width="24" height="24" viewBox="0 0 24 24">
  <g id="Group_41" data-name="Group 41">
    <path id="Path_2598" data-name="Path 2598" d="M0,0H24V24H0Z" fill="none"/>
  </g>
  <g id="Group_42" data-name="Group 42">
    <path id="Path_2599" data-name="Path 2599" d="M21,10.78V8a3.009,3.009,0,0,0-3-3H14a2.974,2.974,0,0,0-2,.78A2.974,2.974,0,0,0,10,5H6A3.009,3.009,0,0,0,3,8v2.78A2.986,2.986,0,0,0,2,13v6H4V17H20v2h2V13A2.986,2.986,0,0,0,21,10.78ZM14,7h4a1,1,0,0,1,1,1v2H13V8A1,1,0,0,1,14,7ZM5,8A1,1,0,0,1,6,7h4a1,1,0,0,1,1,1v2H5ZM4,15V13a1,1,0,0,1,1-1H19a1,1,0,0,1,1,1v2Z"/>
  </g>
</svg>
