<svg id="child_care_black_24dp" xmlns="http://www.w3.org/2000/svg" width="24" height="24" viewBox="0 0 24 24">
  <path id="Path_812" data-name="Path 812" d="M0,0H24V24H0Z" fill="none"/>
  <circle id="Ellipse_3" data-name="Ellipse 3" cx="1.25" cy="1.25" r="1.25" transform="translate(13.25 9.25)" fill="#993365" stroke="#fff" stroke-width="1"/>
  <circle id="Ellipse_4" data-name="Ellipse 4" cx="1.25" cy="1.25" r="1.25" transform="translate(8.25 9.25)" fill="#993365" stroke="#fff" stroke-width="1"/>
  <path id="Path_813" data-name="Path 813" d="M22.94,11.34a4.008,4.008,0,0,0-2.81-3.17,9.114,9.114,0,0,0-2.19-2.91A8.991,8.991,0,0,0,3.87,8.17a3.994,3.994,0,0,0-2.81,3.17,3.66,3.66,0,0,0,0,1.32,4.008,4.008,0,0,0,2.81,3.17,8.977,8.977,0,0,0,2.17,2.89,8.943,8.943,0,0,0,11.93,0,9.086,9.086,0,0,0,2.17-2.89,4,4,0,0,0,2.8-3.17,3.66,3.66,0,0,0,0-1.32ZM19,14a2.851,2.851,0,0,1-.29-.03,7.168,7.168,0,0,1-.86,1.86,6.983,6.983,0,0,1-11.7,0,7.168,7.168,0,0,1-.86-1.86A2.85,2.85,0,0,1,5,14a2,2,0,0,1,0-4,2.851,2.851,0,0,1,.29.03,7.168,7.168,0,0,1,.86-1.86,6.983,6.983,0,0,1,11.7,0,7.168,7.168,0,0,1,.86,1.86A2.85,2.85,0,0,1,19,10a2,2,0,0,1,0,4Zm-7,3a4.907,4.907,0,0,0,4.5-3h-9A4.907,4.907,0,0,0,12,17Z" fill="#993365" stroke="#fff" stroke-width="1"/>
</svg>
