<svg xmlns="http://www.w3.org/2000/svg" width="41.164" height="42" viewBox="0 0 41.164 42">
  <g id="_7123025_logo_google_g_icon" data-name="7123025_logo_google_g_icon" transform="translate(-30.025 -29.098)">
    <path id="Path_2585" data-name="Path 2585" d="M96.076,71.055A26.266,26.266,0,0,0,95.71,66.8H75.9v8.1H87.246a9.545,9.545,0,0,1-4.209,6.359l6.771,5.261c3.98-3.706,6.268-9.1,6.268-15.464Z" transform="translate(-24.887 -20.453)" fill="#4280ef"/>
    <path id="Path_2586" data-name="Path 2586" d="M53.658,100.828a20.09,20.09,0,0,0,13.908-5.078l-6.771-5.216A12.738,12.738,0,0,1,41.854,83.9L34.9,89.253A20.979,20.979,0,0,0,53.658,100.828Z" transform="translate(-2.645 -29.73)" fill="#34a353"/>
    <path id="Path_2587" data-name="Path 2587" d="M39.209,67.851a12.757,12.757,0,0,1,0-8.052l-6.954-5.4a21.028,21.028,0,0,0,0,18.849Z" transform="translate(0 -13.726)" fill="#f6b704"/>
    <path id="Path_2588" data-name="Path 2588" d="M53.658,37.426a11.457,11.457,0,0,1,8.052,3.157L67.7,34.543A20.21,20.21,0,0,0,53.658,29.1,20.979,20.979,0,0,0,34.9,40.674l6.954,5.4A12.562,12.562,0,0,1,53.658,37.426Z" transform="translate(-2.645 0)" fill="#e54335"/>
  </g>
</svg>
