<svg xmlns="http://www.w3.org/2000/svg" width="40.584" height="57.977" viewBox="0 0 40.584 57.977">
  <g id="Group_101" data-name="Group 101" transform="translate(-373 -331.747)">
    <path id="Path_2593" data-name="Path 2593" d="M25.292,2A20.277,20.277,0,0,0,5,22.292C5,37.511,25.292,59.977,25.292,59.977S45.584,37.511,45.584,22.292A20.277,20.277,0,0,0,25.292,2Z" transform="translate(368 329.747)" fill="#993365"/>
    <g id="Group_40" data-name="Group 40" transform="translate(377 337.897)">
      <path id="Path_856" data-name="Path 856" d="M830.378,466.508c1.011-.9,1.991-1.839,3.044-2.687a2.316,2.316,0,0,1,2.2-.176,2.2,2.2,0,0,0,2.152-.354c1.324-.95,2-.847,3.341.143a1.979,1.979,0,0,0,.721.316,3.943,3.943,0,0,0,.8.011c-.9,3.615-.588,6.645,3.609,7.882l.028.188a4.166,4.166,0,0,1-.985.534,4.646,4.646,0,0,1-3.386-.617,13.687,13.687,0,0,1-3.709-3.326,8.925,8.925,0,0,0-2.712-2.114,3.731,3.731,0,0,0-2.883-.214c-.535.152-1.067.316-1.6.468-.184.052-.373.083-.56.123Z" transform="translate(-830.378 -453.365)" fill="#fff"/>
      <path id="Path_857" data-name="Path 857" d="M979.862,466.516a3.3,3.3,0,0,1-.509-.032c-.318-.087-.632-.188-.946-.287a5.291,5.291,0,0,0-6.283,1.832,16.062,16.062,0,0,1-3.59,3.374,5.292,5.292,0,0,1-3.22.9,1.581,1.581,0,0,1-1.482-.805c4.243-1.2,4.477-4.263,3.64-7.886.944.2,1.533-.377,2.194-.823a1.756,1.756,0,0,1,2.1.033,3.3,3.3,0,0,0,3.234.586,2.25,2.25,0,0,1,2.3.724C978.091,464.906,978.919,465.641,979.862,466.516Z" transform="translate(-947.313 -453.212)" fill="#fff"/>
      <path id="Path_858" data-name="Path 858" d="M908.98,436.876a5.586,5.586,0,0,1,7.557-.741c-5.387.724-6.9,4.533-7.434,9.136l-.193-.033a4.019,4.019,0,0,1-.173-.626,12.516,12.516,0,0,0-1.249-4.441,6.855,6.855,0,0,0-5.271-3.861c-.214-.033-.424-.093-.659-.146C902.643,434.3,906.888,434.733,908.98,436.876Z" transform="translate(-892.748 -429.144)" fill="#fff"/>
      <path id="Path_859" data-name="Path 859" d="M948.938,387.779c.461.988,1,2.106,1.5,3.244a2.712,2.712,0,0,1,.214,1.075,1.825,1.825,0,0,1-1.792,1.888,1.854,1.854,0,0,1-1.65-2.136,3.5,3.5,0,0,1,.275-1.007C947.975,389.768,948.5,388.707,948.938,387.779Z" transform="translate(-932.735 -387.779)" fill="#fff"/>
    </g>
  </g>
</svg>
