<svg xmlns="http://www.w3.org/2000/svg" width="16.039" height="15.899" viewBox="0 0 16.039 15.899">
  <g id="Group_102" data-name="Group 102" transform="translate(-369.823 -104.814)">
    <path id="Path_793" data-name="Path 793" d="M369.823,109.074a6.148,6.148,0,0,1,.671-2.12,4.467,4.467,0,0,1,3.98-2.1q3.359-.083,6.724,0a4.489,4.489,0,0,1,3.8,1.857,4.91,4.91,0,0,1,.834,2.824c.032,2.154.047,4.309,0,6.461a4.4,4.4,0,0,1-2.267,4.1,5.112,5.112,0,0,1-2.41.593c-2.212.026-4.425.047-6.637,0a4.5,4.5,0,0,1-4.022-2.1,6.12,6.12,0,0,1-.672-2.12Zm8.026-2.7c-1.1,0-2.2-.021-3.3.006a2.862,2.862,0,0,0-3.084,2.321,4.848,4.848,0,0,0-.116.958c-.01,2.08-.037,4.162,0,6.241s1.089,3.178,3.085,3.25c2.255.083,4.514.076,6.769,0a2.8,2.8,0,0,0,2.97-2.292,3.748,3.748,0,0,0,.111-.782c.012-2.371.143-4.747-.071-7.114a2.682,2.682,0,0,0-2.464-2.511A33.712,33.712,0,0,0,377.849,106.373Z" transform="translate(0 0)" fill="#fff"/>
    <path id="Path_794" data-name="Path 794" d="M380.022,111.283a3.712,3.712,0,1,1-3.687-3.707A3.718,3.718,0,0,1,380.022,111.283Zm-1.376-.019a2.335,2.335,0,1,0-2.341,2.3A2.333,2.333,0,0,0,378.645,111.264Z" transform="translate(1.52 1.508)" fill="#fff"/>
    <path id="Path_795" data-name="Path 795" d="M378.678,106.793a.726.726,0,0,1,.732.716.729.729,0,0,1-1.457.007A.719.719,0,0,1,378.678,106.793Z" transform="translate(3.589 0.872)" fill="#fff"/>
  </g>
</svg>
