<svg id="Group_103" data-name="Group 103" xmlns="http://www.w3.org/2000/svg" width="112.73" height="66.168" viewBox="0 0 112.73 66.168">
  <path id="Path_856" data-name="Path 856" d="M830.378,476.059c3.5-3.119,6.9-6.369,10.543-9.308,2.243-1.807,5.111-1.38,7.629-.611A7.634,7.634,0,0,0,856,464.914c4.585-3.292,6.934-2.934,11.57.5a6.859,6.859,0,0,0,2.5,1.1,13.67,13.67,0,0,0,2.777.039c-3.109,12.52-2.036,23.014,12.5,27.3l.1.651a14.438,14.438,0,0,1-3.41,1.85c-4.171.969-8.063-.1-11.727-2.137-5.149-2.867-9.11-7.083-12.846-11.518a30.907,30.907,0,0,0-9.394-7.322,12.92,12.92,0,0,0-9.985-.74c-1.853.527-3.7,1.1-5.55,1.621-.636.18-1.293.287-1.941.427Z" transform="translate(-830.378 -430.54)" fill="#fff"/>
  <path id="Path_857" data-name="Path 857" d="M1019.348,476.518a11.428,11.428,0,0,1-1.762-.112c-1.1-.3-2.188-.65-3.276-1-8.948-2.837-15.687-.882-21.76,6.344-3.686,4.386-7.547,8.579-12.433,11.685a18.33,18.33,0,0,1-11.152,3.12c-1.919-.119-3.817-.448-5.131-2.789,14.694-4.14,15.506-14.763,12.605-27.312,3.27.69,5.309-1.306,7.6-2.852a6.082,6.082,0,0,1,7.272.114c3.5,2.594,6.941,3.4,11.2,2.028,2.938-.949,5.7.27,7.974,2.508C1013.214,470.941,1016.082,473.486,1019.348,476.518Z" transform="translate(-906.617 -430.44)" fill="#fff"/>
  <path id="Path_858" data-name="Path 858" d="M927.258,441.526c7.582-8.136,18-8.181,26.175-2.565-18.656,2.507-23.915,15.7-25.747,31.642l-.667-.115a13.9,13.9,0,0,1-.6-2.168,43.344,43.344,0,0,0-4.326-15.38c-3.886-7.474-9.851-12.077-18.254-13.374-.742-.115-1.469-.323-2.281-.505C905.313,432.614,920.013,434.105,927.258,441.526Z" transform="translate(-871.042 -414.748)" fill="#fff"/>
  <path id="Path_859" data-name="Path 859" d="M953.23,387.779c1.6,3.42,3.479,7.293,5.2,11.235a9.4,9.4,0,0,1,.742,3.722c-.024,3.726-2.952,6.714-6.208,6.538a6.42,6.42,0,0,1-5.715-7.4,12.137,12.137,0,0,1,.952-3.486C949.893,394.666,951.7,390.994,953.23,387.779Z" transform="translate(-897.112 -387.779)" fill="#fff"/>
</svg>
