<svg id="hot_tub_black_24dp" xmlns="http://www.w3.org/2000/svg" width="24" height="24" viewBox="0 0 24 24">
  <path id="Path_816" data-name="Path 816" d="M0,0H24V24H0Z" fill="none"/>
  <circle id="Ellipse_5" data-name="Ellipse 5" cx="2" cy="2" r="2" transform="translate(5 4)" fill="#993365" stroke="#fff" stroke-width="1"/>
  <path id="Path_817" data-name="Path 817" d="M11.15,12a4.8,4.8,0,0,1-.82-.72L8.93,9.73a2.145,2.145,0,0,0-.69-.5A2.225,2.225,0,0,0,7.28,9H7.25A2.253,2.253,0,0,0,5,11.25V12H2v8a2.006,2.006,0,0,0,2,2H20a2.006,2.006,0,0,0,2-2V12ZM7,20H5V14H7Zm4,0H9V14h2Zm4,0H13V14h2Zm4,0H17V14h2ZM17.42,7.21a2.526,2.526,0,0,1,.67,2.2l-.11.59h1.91l.06-.43a4.237,4.237,0,0,0-1.3-3.71l-.07-.07a2.526,2.526,0,0,1-.67-2.2L18,3H16.11l-.06.43a4.293,4.293,0,0,0,1.3,3.72Zm-4,0a2.526,2.526,0,0,1,.67,2.2l-.11.59h1.91l.06-.43a4.237,4.237,0,0,0-1.3-3.71l-.07-.07a2.526,2.526,0,0,1-.67-2.2L14,3H12.11l-.06.43a4.293,4.293,0,0,0,1.3,3.72l.07.06Z" fill="#993365" stroke="#fff" stroke-width="1"/>
</svg>
