<svg xmlns="http://www.w3.org/2000/svg" width="16.991" height="16" viewBox="0 0 16.991 16">
  <path id="iconmonstr-snapchat-1" d="M4.127,3.414a9.9,9.9,0,0,0-.189,3.848c-.459.254-1.048-.192-1.381-.192a.844.844,0,0,0-.826.568c-.047.245.063.6.85.913.3.12,1.029.262,1.2.657C4.013,9.763,2.566,12.325.3,12.7A.352.352,0,0,0,0,13.066c.04.69,1.587.961,2.273,1.067a6.191,6.191,0,0,1,.217.8.394.394,0,0,0,.412.3,5.88,5.88,0,0,1,1.938-.1c.99.165,1.92,1.568,3.706,1.568,1.66,0,2.651-1.41,3.6-1.568a4.167,4.167,0,0,1,1.555.041c.365.072.692.111.8-.247a6.238,6.238,0,0,1,.216-.8c.68-.105,2.234-.375,2.273-1.065A.353.353,0,0,0,16.7,12.7c-2.233-.368-3.723-2.922-3.482-3.491.167-.394.886-.535,1.2-.657.576-.227.865-.507.859-.83-.008-.414-.506-.661-.873-.661s-.909.442-1.343.2a9.907,9.907,0,0,0-.189-3.85A4.7,4.7,0,0,0,8.486.7a4.667,4.667,0,0,0-4.36,2.714Z" transform="translate(0 -0.7)" fill="#fff"/>
</svg>
