<svg xmlns="http://www.w3.org/2000/svg" width="54" height="54" viewBox="0 0 54 54">
  <g id="icons8-whatsapp" transform="translate(2 2)" fill="#4caf4f">
    <path d="M 25 50 C 21.15050506591797 50 17.32527923583984 49.10097885131836 13.88704013824463 47.39411544799805 L 3.72088098526001 49.91233062744141 L 3.714280843734741 49.91395950317383 L 3.707680940628052 49.91555023193359 C 3.47468090057373 49.97158813476562 3.23659086227417 50 3.000000953674316 50 C 2.192991018295288 50 1.407920956611633 49.66764831542969 0.8460909724235535 49.08818054199219 C 0.1064309477806091 48.32764053344727 -0.1760590523481369 47.21664047241211 0.1110109463334084 46.19094848632812 L 2.818562984466553 36.5303955078125 C 0.9721450805664062 32.98218154907227 9.460449064135901e-07 29.01420974731445 9.460449064135901e-07 25 C 9.460449064135901e-07 11.21494960784912 11.21495056152344 -3.552713678800501e-15 25 -3.552713678800501e-15 C 38.78504943847656 -3.552713678800501e-15 50 11.21494960784912 50 25 C 50 38.78504943847656 38.78504943847656 50 25 50 Z M 16.66259956359863 16.0000057220459 C 16.64286613464355 16.00479507446289 16.59574317932129 16.02285766601562 16.5329418182373 16.09052085876465 C 16.49374008178711 16.13274955749512 16.4500617980957 16.17882919311523 16.40255165100098 16.22886085510254 C 15.87798118591309 16.78126907348633 15.00000095367432 17.70582962036133 15.00000095367432 19.5939998626709 C 15.00000095367432 21.61576080322266 16.52995109558105 23.7898006439209 16.99887084960938 24.40794944763184 L 17.00459098815918 24.41550064086914 C 17.04358100891113 24.46673011779785 17.08372116088867 24.52351951599121 17.15023040771484 24.61761093139648 C 18.69072151184082 26.79684066772461 21.92560005187988 30.73018074035645 26.2825813293457 32.58832168579102 C 27.59429168701172 33.14781951904297 28.61304092407227 33.48102951049805 29.46498107910156 33.74943161010742 C 30.00016021728516 33.91748046875 30.55141067504883 33.99943923950195 31.14841079711914 33.99943923950195 C 31.50410079956055 33.99943923950195 31.87894058227539 33.96989059448242 32.29436111450195 33.90908050537109 C 32.46458053588867 33.88401031494141 33.03116989135742 33.70166015625 33.68486022949219 33.29964828491211 C 34.36795425415039 32.87953567504883 34.64497375488281 32.5255126953125 34.69157791137695 32.42928314208984 C 34.82269668579102 32.06512832641602 34.89999389648438 31.740966796875 34.94449234008789 31.48094749450684 C 34.9281005859375 31.47289848327637 34.91156005859375 31.46474838256836 34.89487075805664 31.45648956298828 C 34.18123626708984 31.10329818725586 32.45743942260742 30.27191543579102 31.56417465209961 29.86485290527344 C 30.9167537689209 30.68380546569824 30.0601634979248 31.65621757507324 30.04890060424805 31.66898918151855 C 29.30995178222656 32.50460815429688 28.47946166992188 32.67961120605469 27.91259002685547 32.67961120605469 C 27.42047119140625 32.67961120605469 26.92009162902832 32.55036163330078 26.38287162780762 32.28448867797852 C 26.3352108001709 32.26089859008789 26.20532035827637 32.20521926879883 26.09073066711426 32.15610122680664 C 25.19327163696289 31.77142906188965 23.32580184936523 30.97097969055176 21.20013999938965 29.09889984130859 C 19.2857608795166 27.41345977783203 17.9843807220459 25.37306976318359 17.51374053955078 24.57406997680664 C 17.05293083190918 23.7917594909668 16.96086120605469 22.93091011047363 17.2545108795166 22.15011024475098 C 17.48251152038574 21.54383087158203 17.88022041320801 21.1528491973877 18.09388160705566 20.94278907775879 C 18.19816017150879 20.84008026123047 18.3791618347168 20.6224308013916 18.53885078430176 20.43041038513184 C 18.64662170410156 20.30080986022949 18.75806045532227 20.16680908203125 18.87165069580078 20.03595924377441 C 18.91421699523926 19.98691749572754 18.93848037719727 19.95615386962891 18.9736328125 19.89399909973145 C 18.80229759216309 19.49867057800293 18.49464797973633 18.76231956481934 17.92169189453125 17.38471031188965 C 17.70813179016113 16.87124633789062 17.50443267822266 16.38148880004883 17.3476390838623 16.00738716125488 C 17.14835357666016 16.00256156921387 16.92151069641113 16.0001277923584 16.66259956359863 16.0000057220459 Z" stroke="none"/>
    <path d="M 25 2 C 12.31800079345703 2 2 12.31800079345703 2 25 C 2 28.95999908447266 3.023002624511719 32.85400009155273 4.963001251220703 36.29000091552734 L 2.037002563476562 46.72999954223633 C 1.941001892089844 47.072998046875 2.034000396728516 47.44100189208984 2.282001495361328 47.69599914550781 C 2.530231475830078 47.9520263671875 2.8973388671875 48.05340957641602 3.240001678466797 47.97100067138672 L 14.13600158691406 45.27199935913086 C 17.4630012512207 47.05799865722656 21.21000099182129 48 25 48 C 37.68199920654297 48 48 37.68199920654297 48 25 C 48 12.31800079345703 37.68199920654297 2 25 2 M 17.86047744750977 14.02275085449219 C 18.21236801147461 14.02273178100586 18.66107368469238 13.97208023071289 19.10300064086914 15.02199935913086 C 19.59500122070312 16.18999862670898 20.7760009765625 19.05900001525879 20.92200088500977 19.35199928283691 C 21.07000160217285 19.64399909973145 21.16800117492676 19.98500061035156 20.97200012207031 20.37400054931641 C 20.7760009765625 20.76300048828125 20.67800140380859 21.00600051879883 20.38200187683105 21.34700012207031 C 20.08600044250488 21.6879997253418 19.76200103759766 22.10700035095215 19.49600028991699 22.36899948120117 C 19.20000076293945 22.65999984741211 18.89300155639648 22.97500038146973 19.23700141906738 23.55900001525879 C 19.58100128173828 24.14299964904785 20.76600074768066 26.05200004577637 22.52200126647949 27.59799957275391 C 24.77700042724609 29.58399963378906 26.68000030517578 30.20000076293945 27.27000045776367 30.49200057983398 C 27.86000442504883 30.78400039672852 28.20500183105469 30.7349967956543 28.54900169372559 30.34600067138672 C 28.89300155639648 29.95599937438965 30.02500152587891 28.64299964904785 30.41800117492676 28.05999946594238 C 30.81099700927734 27.47700309753418 31.20499801635742 27.57300186157227 31.74700164794922 27.76799964904785 C 32.28900146484375 27.96199989318848 35.19200134277344 29.37199974060059 35.78200149536133 29.66399955749512 C 36.37200164794922 29.95599937438965 36.76599884033203 30.10199928283691 36.91400146484375 30.34499931335449 C 37.0620002746582 30.58699989318848 37.0620002746582 31.7549991607666 36.56999969482422 33.11599731445312 C 36.0780029296875 34.47800064086914 33.71800231933594 35.72100067138672 32.58399963378906 35.88800048828125 C 31.56599807739258 36.03700256347656 30.27799987792969 36.10099792480469 28.86400032043457 35.65699768066406 C 28.00700187683105 35.38700103759766 26.90700149536133 35.02899932861328 25.49800109863281 34.42800140380859 C 19.57500076293945 31.90200042724609 15.70700073242188 26.01300048828125 15.4109992980957 25.62400054931641 C 15.11600112915039 25.23500061035156 13 22.46299934387207 13 19.5939998626709 C 13 16.72499847412109 14.52500152587891 15.31399917602539 15.06700134277344 14.72999954223633 C 15.60900115966797 14.14599990844727 16.24800109863281 14 16.64200210571289 14 C 17.0359992980957 14 17.42900085449219 14.00500106811523 17.77400207519531 14.02099990844727 C 17.80209350585938 14.02239227294922 17.83095932006836 14.02275085449219 17.86047744750977 14.02275085449219 M 25 -2 C 39.88785171508789 -2 52 10.11214828491211 52 25 C 52 39.88784790039062 39.88785171508789 52 25 52 C 21.09239959716797 52 17.20753479003906 51.14205169677734 13.6710090637207 49.50807571411133 L 4.175350189208984 51.86009979248047 C 3.789379119873047 51.95293045043945 3.393932342529297 52 3 52 C 1.657012939453125 52 0.3505363464355469 51.44782257080078 -0.58551025390625 50.48479843139648 L -0.58551025390625 50.48479843139648 C -1.822288513183594 49.21311187744141 -2.293388366699219 47.36125183105469 -1.814968109130859 45.65190124511719 L 0.6841239929199219 36.73508453369141 C -1.076072692871094 33.08903121948242 -2 29.06611061096191 -2 25 C -2 10.11214828491211 10.11215209960938 -2 25 -2 Z" stroke="none" fill="#fff"/>
  </g>
</svg>
