<svg id="king_bed_black_24dp_1_" data-name="king_bed_black_24dp (1)" xmlns="http://www.w3.org/2000/svg" width="24" height="24" viewBox="0 0 24 24">
  <g id="Group_43" data-name="Group 43">
    <rect id="Rectangle_9540" data-name="Rectangle 9540" width="24" height="24" fill="none"/>
  </g>
  <g id="Group_44" data-name="Group 44">
    <path id="Path_2600" data-name="Path 2600" d="M22,12a2.006,2.006,0,0,0-2-2V7a2.006,2.006,0,0,0-2-2H6A2.006,2.006,0,0,0,4,7v3a2.006,2.006,0,0,0-2,2v5H3.33L4,19H5l.67-2H18.34L19,19h1l.67-2H22Zm-4-2H13V7h5ZM6,7h5v3H6ZM4,12H20v3H4Z"/>
  </g>
</svg>
