<svg id="loyalty_black_24dp" xmlns="http://www.w3.org/2000/svg" width="34" height="34" viewBox="0 0 34 34">
  <path id="Path_798" data-name="Path 798" d="M0,0H34V34H0Z" fill="none"/>
  <path id="Path_799" data-name="Path 799" d="M29.5,15.572,16.747,2.822a2.816,2.816,0,0,0-2-.822H4.833A2.842,2.842,0,0,0,2,4.833V14.75a2.827,2.827,0,0,0,.836,2.012l12.75,12.75a2.816,2.816,0,0,0,2,.822,2.77,2.77,0,0,0,2-.836L29.5,19.581a2.77,2.77,0,0,0,.836-2A2.861,2.861,0,0,0,29.5,15.572ZM17.583,27.514,4.833,14.75V4.833H14.75V4.819L27.5,17.569Z" transform="translate(0.833 0.833)" fill="#993365"/>
  <circle id="Ellipse_1" data-name="Ellipse 1" cx="2" cy="2" r="2" transform="translate(7 7)" fill="#993365"/>
  <path id="Path_800" data-name="Path 800" d="M8.9,13.4a2.915,2.915,0,0,0,.85,2.054l4.958,4.958,4.958-4.958a2.905,2.905,0,0,0-4.108-4.108l-.85.85-.85-.836A2.869,2.869,0,0,0,11.8,10.5,2.908,2.908,0,0,0,8.9,13.4Z" transform="translate(3.708 4.375)" fill="#993365"/>
</svg>
