<svg id="payments_black_24dp" xmlns="http://www.w3.org/2000/svg" width="34" height="34" viewBox="0 0 34 34">
  <rect id="Rectangle_25" data-name="Rectangle 25" width="34" height="34" fill="none"/>
  <path id="Path_801" data-name="Path 801" d="M26.5,18.167V6.833A2.842,2.842,0,0,0,23.667,4H3.833A2.842,2.842,0,0,0,1,6.833V18.167A2.842,2.842,0,0,0,3.833,21H23.667A2.842,2.842,0,0,0,26.5,18.167Zm-2.833,0H3.833V6.833H23.667ZM13.75,8.25A4.25,4.25,0,1,0,18,12.5,4.244,4.244,0,0,0,13.75,8.25Zm18.417,0V23.833a2.842,2.842,0,0,1-2.833,2.833H5.25V23.833H29.333V8.25Z" transform="translate(0.417 1.667)" fill="#993365"/>
</svg>
