<svg id="person_black_24dp_1_" data-name="person_black_24dp (1)" xmlns="http://www.w3.org/2000/svg" width="16" height="16" viewBox="0 0 16 16">
  <path id="Path_796" data-name="Path 796" d="M0,0H16V16H0Z" fill="none"/>
  <path id="Path_797" data-name="Path 797" d="M9.333,5.333A1.333,1.333,0,1,1,8,6.667,1.337,1.337,0,0,1,9.333,5.333m0,6.667c1.8,0,3.867.86,4,1.333h-8c.153-.48,2.207-1.333,4-1.333m0-8A2.667,2.667,0,1,0,12,6.667,2.666,2.666,0,0,0,9.333,4Zm0,6.667C7.553,10.667,4,11.56,4,13.333v1.333H14.667V13.333C14.667,11.56,11.113,10.667,9.333,10.667Z" transform="translate(-1.333 -1.333)" fill="#993365"/>
</svg>
