<svg xmlns="http://www.w3.org/2000/svg" width="36.005" height="27.003" viewBox="0 0 36.005 27.003">
  <path id="room_service_FILL0_wght400_GRAD0_opsz48" d="M4,35V32.3H40V35Zm1.35-5.4v-.765q0-6.976,3.983-11.251A18.464,18.464,0,0,1,19.3,12.051V8h5.4v4.051a18.464,18.464,0,0,1,9.969,5.536q3.983,4.276,3.983,11.251V29.6Zm2.835-2.7H35.819a12.959,12.959,0,0,0-4.613-9.024,14.163,14.163,0,0,0-9.249-3.263,13.987,13.987,0,0,0-9.2,3.263A13.032,13.032,0,0,0,8.186,26.9ZM22,26.9Z" transform="translate(-4 -8)" fill="#993365"/>
</svg>
