<svg id="shower_black_24dp" xmlns="http://www.w3.org/2000/svg" width="16" height="16" viewBox="0 0 16 16">
  <g id="Group_49" data-name="Group 49">
    <path id="Path_2610" data-name="Path 2610" d="M0,0H16V16H0Z" fill="none"/>
  </g>
  <g id="Group_50" data-name="Group 50" transform="translate(3.333 2)">
    <path id="Path_2611" data-name="Path 2611" d="M7.667,12.333A.667.667,0,1,1,7,11.667.669.669,0,0,1,7.667,12.333Zm2-.667a.667.667,0,1,0,.667.667A.669.669,0,0,0,9.667,11.667Zm2.667,0a.667.667,0,1,0,.667.667A.669.669,0,0,0,12.333,11.667Zm2-2.667v1.333H5V9A4.663,4.663,0,0,1,9,4.387V3h1.333V4.387A4.663,4.663,0,0,1,14.333,9ZM13,9A3.333,3.333,0,0,0,6.333,9ZM7,13.667a.667.667,0,1,0,.667.667A.669.669,0,0,0,7,13.667Zm2.667,0a.667.667,0,1,0,.667.667A.669.669,0,0,0,9.667,13.667Zm2.667,0a.667.667,0,1,0,.667.667A.669.669,0,0,0,12.333,13.667Z" transform="translate(-5 -3)" fill="#404040" stroke="#fff" stroke-width="0.5"/>
  </g>
</svg>
