<svg id="single_bed_black_24dp" xmlns="http://www.w3.org/2000/svg" width="24" height="24" viewBox="0 0 24 24">
  <g id="Group_45" data-name="Group 45">
    <rect id="Rectangle_9541" data-name="Rectangle 9541" width="24" height="24" fill="none"/>
  </g>
  <g id="Group_46" data-name="Group 46">
    <path id="Path_2601" data-name="Path 2601" d="M20,12a2.006,2.006,0,0,0-2-2V7a2.006,2.006,0,0,0-2-2H8A2.006,2.006,0,0,0,6,7v3a2.006,2.006,0,0,0-2,2v5H5.33L6,19H7l.67-2h8.67L17,19h1l.67-2H20Zm-4-2H13V7h3ZM8,7h3v3H8ZM6,12H18v3H6Z"/>
  </g>
</svg>
