<svg id="spa_black_24dp" xmlns="http://www.w3.org/2000/svg" width="24" height="24" viewBox="0 0 24 24">
  <path id="Path_831" data-name="Path 831" d="M0,0H24V24H0Z" fill="none"/>
  <path id="Path_832" data-name="Path 832" d="M15.49,9.63A11.792,11.792,0,0,0,12.06,2,12.188,12.188,0,0,0,8.51,9.63,13.867,13.867,0,0,1,12,12.26a14.358,14.358,0,0,1,3.49-2.63ZM12.05,5.19a10.145,10.145,0,0,1,1.3,3.38,14.373,14.373,0,0,0-1.34.98,16.172,16.172,0,0,0-1.33-.97,10.209,10.209,0,0,1,1.37-3.39ZM12,15.45a12.11,12.11,0,0,0-3.06-3.2c-.13-.09-.27-.16-.4-.26.13.09.27.17.39.25A11.777,11.777,0,0,0,2,10a12.174,12.174,0,0,0,8.03,11.49A10.749,10.749,0,0,0,12,22a12.94,12.94,0,0,0,1.97-.51A12.174,12.174,0,0,0,22,10,11.946,11.946,0,0,0,12,15.45Zm1.32,4.15a12.5,12.5,0,0,1-1.33.37,8.957,8.957,0,0,1-1.28-.36,10.151,10.151,0,0,1-6.45-7.35,10.105,10.105,0,0,1,3.12,1.33l-.02.01a4.25,4.25,0,0,0,.39.25l.07.04a9.9,9.9,0,0,1,2.51,2.65L12,19.1l1.67-2.55a10.19,10.19,0,0,1,2.53-2.66l.07-.05c.09-.05.18-.11.27-.17l-.01-.02a9.993,9.993,0,0,1,3.21-1.4,10.117,10.117,0,0,1-6.42,7.35ZM8.99,12.28a.218.218,0,0,1-.05-.04.01.01,0,0,1,.01.01A.138.138,0,0,0,8.99,12.28Z" fill="#993365" stroke="#fff" stroke-width="1"/>
</svg>
