<svg xmlns="http://www.w3.org/2000/svg" width="15" height="13" viewBox="0 0 15 13">
  <path id="telegram-1" d="M11.49,15.856a.719.719,0,0,0,.692.094.746.746,0,0,0,.452-.546c.543-2.655,1.861-9.374,2.355-11.788a.519.519,0,0,0-.162-.493.485.485,0,0,0-.5-.091C11.708,4.041,3.637,7.191.339,8.46A.541.541,0,0,0,.37,9.476c1.479.46,3.421,1.1,3.421,1.1s.907,2.85,1.381,4.3a.558.558,0,0,0,.377.374.527.527,0,0,0,.507-.135l1.935-1.9s2.232,1.7,3.5,2.64Zm-6.881-5.64,1.049,3.6.233-2.28,6.365-5.971a.186.186,0,0,0,.021-.245.173.173,0,0,0-.235-.042L4.608,10.216Z" transform="translate(0 -3)" fill="#fff" fill-rule="evenodd"/>
</svg>
