<svg id="volume_off_black_24dp" xmlns="http://www.w3.org/2000/svg" width="16" height="16" viewBox="0 0 16 16">
  <path id="Path_2606" data-name="Path 2606" d="M0,0H16V16H0Z" fill="none"/>
  <path id="Path_2607" data-name="Path 2607" d="M3.87,2.93l-.94.94L5.837,6.777l-.193.2H2.977v4H5.643L8.977,14.31V9.917L11.763,12.7a4.474,4.474,0,0,1-1.453.74v1.373a5.96,5.96,0,0,0,2.407-1.167l1.367,1.367.94-.94Zm3.773,8.16L6.2,9.643H4.31V8.31H6.2l.587-.587.86.86Zm6-2.113a4.65,4.65,0,0,1-.273,1.56l1.02,1.02A5.989,5.989,0,0,0,10.31,3.13V4.5A4.67,4.67,0,0,1,13.643,8.977ZM8.977,3.643,7.723,4.9,8.977,6.15Zm3,5.333A3,3,0,0,0,10.31,6.29V7.483l1.653,1.653A1.294,1.294,0,0,0,11.977,8.977Z" transform="translate(-0.977 -0.977)" fill="#404040" stroke="#fff" stroke-width="0.5"/>
</svg>
