<svg xmlns="http://www.w3.org/2000/svg" width="16.081" height="16" viewBox="0 0 16.081 16">
  <g id="wifi_black_24dp_2_" data-name="wifi_black_24dp (2)" transform="translate(0.04)">
    <path id="Path_2604" data-name="Path 2604" d="M0,0H16V16H0ZM0,0H16V16H0Z" fill="none"/>
    <path id="Path_2605" data-name="Path 2605" d="M1,7.483,2.333,8.816a8.486,8.486,0,0,1,12,0l1.333-1.333A10.377,10.377,0,0,0,1,7.483Zm5.333,5.333,2,2,2-2A2.825,2.825,0,0,0,6.333,12.816ZM3.667,10.149,5,11.483a4.716,4.716,0,0,1,6.667,0L13,10.149A6.607,6.607,0,0,0,3.667,10.149Z" transform="translate(-0.333 -1.483)" fill="#404040" stroke="#fff" stroke-width="1"/>
  </g>
</svg>
